# xmcd CD database file
#
# Track frame offsets:
#	150
#	11177
#	24681
#	35883
#	50636
#	61589
#	74309
#	86085
#	96801
#	112741
#	123149
#	134274
#	145037
#	157211
#	166280
#	178358
#	191038
#	202699
#	216394
#	230586
#
# Disc length: 3208 seconds
#
# Revision: 1
# Processed by: cddbd v1.5.1PL0 Copyright (c) Steve Scherf et al.
# Submitted via: CDex 1.51
#
DISCID=230c8614
DTITLE=Doris Day - This is gold Doris Day CD 2 - 3
DYEAR=2005
DGENRE=Easy Listening
TTITLE0=Crazy rhythm
TTITLE1=It's a lovely day today
TTITLE2=Lulabay of Browadway
TTITLE3=Please don't talk about me when I'm gone
TTITLE4=You can't lose me
TTITLE5=I know that you know
TTITLE6=Ain't we got fun
TTITLE7=Doris Day with Mellomen - Eveywhere you go
TTITLE8=Shaking the blues away
TTITLE9=Just one of those things
TTITLE10=Ready, willing and able
TTITLE11=(When did I tell you I was going to) Shanghai
TTITLE12=A guy is a guy
TTITLE13=Doris Day and Frankie Laine - Sugarbush
TTITLE14=Doris Day with Chorus - Canadian capers (Cuttin'capers)
TTITLE15=Fine and dandy
TTITLE16=Doris Day with Buddy Clark - Powder your face with sunshine (Smile! Smile! Smile!)
TTITLE17=I may be wrong (but I think you're wonderful)
TTITLE18=With a song in my heart
TTITLE19=Doris Day and Country Cousins - Quicksilver
EXTD=YEAR: 2005
EXTT0=
EXTT1=
EXTT2=
EXTT3=
EXTT4=
EXTT5=
EXTT6=
EXTT7=
EXTT8=
EXTT9=
EXTT10=
EXTT11=
EXTT12=
EXTT13=
EXTT14=
EXTT15=
EXTT16=
EXTT17=
EXTT18=
EXTT19=
PLAYORDER=
